<svg fill="none" height="139" viewBox="0 0 184 139" width="184" xmlns="http://www.w3.org/2000/svg" xmlns:xlink="http://www.w3.org/1999/xlink"><linearGradient id="a" gradientUnits="userSpaceOnUse" x1="134.454" x2="131.655" y1="89.8556" y2="59.1942"><stop offset="0" stop-color="#66a6ff"/><stop offset="1" stop-color="#89f7fe"/></linearGradient><g clip-rule="evenodd" fill-rule="evenodd"><path d="m0 117.535c0-2.209 1.79086-4 4-4h175.563c2.209 0 4 1.791 4 4v17.466c0 2.209-1.791 4-4 4h-175.56301c-2.20914 0-3.99999-1.791-3.99999-4z" fill="#111213" fill-opacity=".1"/><path d="m0 104.41h65.2551v4.35h-65.2551z" fill="#111213" fill-opacity=".1"/><path d="m0 69.7891c0-2.2092 1.79086-4 4-4h175.563c2.209 0 4 1.7908 4 4v17.4654c0 2.2091-1.791 4-4 4h-175.56301c-2.20914 0-3.99999-1.7909-3.99999-4z" fill="url(#a)"/><g fill="#111213" fill-opacity=".1"><path d="m0 56.5586h43.5034v4.3503h-43.5034z"/><path d="m52.6318 34.8008h78.3062v4.3503h-78.3062z"/><path d="m26.5278 26.0977h130.5102v4.3503h-130.5102z"/><path d="m61.3276 0h60.9044v13.051h-60.9044z"/></g></g></svg>