<svg fill="none" height="135" viewBox="0 0 180 135" width="180" xmlns="http://www.w3.org/2000/svg" xmlns:xlink="http://www.w3.org/1999/xlink"><linearGradient id="a"><stop offset="0" stop-color="#ff7a22"/><stop offset="1" stop-color="#ff4ab9"/></linearGradient><linearGradient id="b" gradientUnits="userSpaceOnUse" x1="82.8838" x2="107.78" xlink:href="#a" y1="76.6719" y2="97.0224"/><linearGradient id="c" gradientUnits="userSpaceOnUse" x1="147.718" x2="172.614" xlink:href="#a" y1="76.6719" y2="97.0224"/><linearGradient id="d" gradientUnits="userSpaceOnUse" x1="17.7181" x2="42.6138" xlink:href="#a" y1="76.668" y2="97.0185"/><g clip-rule="evenodd" fill-rule="evenodd"><path d="m72.8335 130.34h34.4995v3.833h-34.4995z" fill="#111213" fill-opacity=".1"/><path d="m65.166 122.672h49.833v3.833h-49.833z" fill="#111213" fill-opacity=".1"/><path d="m90.0832 111.172c9.5269 0 17.2498-7.723 17.2498-17.2501 0-9.5269-7.7229-17.25-17.2498-17.25-9.527 0-17.25 7.7231-17.25 17.25 0 9.5271 7.723 17.2501 17.25 17.2501z" fill="url(#b)"/><path d="m137.667 130.34h34.5v3.833h-34.5z" fill="#111213" fill-opacity=".1"/><path d="m130 122.672h49.833v3.833h-49.833z" fill="#111213" fill-opacity=".1"/><path d="m154.917 111.172c9.527 0 17.25-7.723 17.25-17.2501 0-9.5269-7.723-17.25-17.25-17.25s-17.25 7.7231-17.25 17.25c0 9.5271 7.723 17.2501 17.25 17.2501z" fill="url(#c)"/><path d="m7.66748 130.336h34.50002v3.833h-34.50002z" fill="#111213" fill-opacity=".1"/><path d="m0 122.668h49.8333v3.833h-49.8333z" fill="#111213" fill-opacity=".1"/><path d="m24.9175 111.168c9.5269 0 17.25-7.723 17.25-17.25 0-9.5269-7.7231-17.25-17.25-17.25s-17.25002 7.7231-17.25002 17.25c0 9.527 7.72312 17.25 17.25002 17.25z" fill="url(#d)"/><g fill="#111213" fill-opacity=".1"><path d="m62.6669 46h53.6671v3.8333h-53.6671z"/><path d="m32 38.332h115v3.8334h-115z"/><path d="m32 30.668h115v3.8333h-115z"/><path d="m32 23h115v3.8333h-115z"/><path d="m62.666 0h53.667v11.5h-53.667z"/></g></g></svg>