<svg fill="none" height="688" viewBox="0 0 335 688" width="335" xmlns="http://www.w3.org/2000/svg" xmlns:xlink="http://www.w3.org/1999/xlink"><linearGradient id="a" gradientUnits="userSpaceOnUse" x1="223.404" x2="215.973" y1="572.15" y2="515.669"><stop offset="0" stop-color="#66a6ff"/><stop offset="1" stop-color="#89f7fe"/></linearGradient><mask id="b" height="656" maskUnits="userSpaceOnUse" width="303" x="16" y="16"><path clip-rule="evenodd" d="m49.936 16c-18.7423 0-33.936 15.1914-33.936 33.931v588.138c0 18.74 15.1937 33.931 33.936 33.931h235.128c18.742 0 33.936-15.191 33.936-33.931v-588.138c0-18.7396-15.194-33.931-33.936-33.931h-50.972c-3.164 0-3.972 2.0169-3.972 5.1358 0 9.8798-2.424 19.5046-17.083 19.5046h-91.073c-14.66 0-17.084-9.6248-17.084-19.5046 0-3.1189-.808-5.1358-3.972-5.1358z" fill="#fff" fill-rule="evenodd"/></mask><path d="m0 0h335v688h-335z" fill="#f5f5f5" fill-opacity=".8"/><path d="m0 0h335v688h-335z" fill="#f5f5f5" fill-opacity=".8" opacity=".5"/><circle cx="124" cy="25" fill="#dfdfdf" r="4"/><path d="m139 6h57v3c0 1.6569-1.343 3-3 3h-51c-1.657 0-3-1.3431-3-3z" fill="#dfdfdf"/><g mask="url(#b)"><rect fill="#fff" height="656" rx="4" width="303" x="16" y="16"/><g clip-rule="evenodd" fill-rule="evenodd"><path d="m50.0754 542.414c.0004-8.284 6.7165-15 15.0008-14.999l206.6378.01c8.284 0 15 6.716 14.999 15.001l-.001 17.327c0 8.284-6.716 15-15 14.999l-206.6381-.01c-8.2843 0-14.9997-6.716-14.9993-15z" fill="url(#a)"/><path d="m128.955 547.137 78.879.004v7.887l-78.88-.003z" fill="#fff"/><path d="m50.0818 408.32c.0004-8.284 6.7164-14.999 15.0007-14.999l206.6375.01c8.285 0 15 6.717 15 15.001l-.001 17.327c-.001 8.285-6.717 15-15.001 15l-206.6378-.01c-8.2842-.001-14.9997-6.717-14.9992-15.001z" fill="#111213" fill-opacity=".1"/><path d="m50.0833 377.543 63.1037.003-.001 7.888-63.1031-.003z" fill="#111213" fill-opacity=".1"/><path d="m50.0862 321.555c.0004-8.285 6.7164-15 15.0007-15l206.6381.01c8.284.001 14.999 6.717 14.999 15.001l-.001 17.328c0 8.284-6.716 14.999-15 14.999l-206.6384-.01c-8.2842 0-14.9997-6.716-14.9993-15.001z" fill="#111213" fill-opacity=".1"/><path d="m50.0874 290.777 118.3186.006v7.888l-118.319-.006z" fill="#111213" fill-opacity=".1"/><path d="m50.0901 234.789c.0004-8.284 6.7164-15 15.0007-14.999l206.6382.01c8.284 0 14.999 6.716 14.999 15.001l-.001 17.327c0 8.284-6.716 15-15.001 14.999l-206.6375-.01c-8.2842 0-14.9997-6.716-14.9992-15z" fill="#111213" fill-opacity=".1"/><path d="m50.0916 204.012 78.8794.004-.001 7.887-78.8788-.003z" fill="#111213" fill-opacity=".1"/><path d="m97.4214 164.574 141.9826.007v7.888l-141.983-.007z" fill="#111213" fill-opacity=".1"/><path d="m50.0947 148.793 236.6383.011-.001 7.888-236.6377-.011z" fill="#111213" fill-opacity=".1"/><path d="m113.2 113.301c0-6.535 5.298-11.832 11.833-11.832l86.767.005c6.534 0 11.831 5.297 11.831 11.832 0 6.535-5.298 11.832-11.832 11.831l-86.768-.004c-6.534 0-11.831-5.298-11.831-11.832z" fill="#111213" fill-opacity=".1"/></g></g></svg>