<svg fill="none" height="688" viewBox="0 0 335 688" width="335" xmlns="http://www.w3.org/2000/svg" xmlns:xlink="http://www.w3.org/1999/xlink"><linearGradient id="a" gradientUnits="userSpaceOnUse" x1="85.5623" x2="274.368" y1="313.334" y2="467.944"><stop offset="0" stop-color="#f6d365"/><stop offset="1" stop-color="#ff7952"/></linearGradient><mask id="b" height="656" maskUnits="userSpaceOnUse" width="303" x="16" y="16"><path clip-rule="evenodd" d="m49.936 16c-18.7423 0-33.936 15.1914-33.936 33.931v588.138c0 18.74 15.1937 33.931 33.936 33.931h235.128c18.742 0 33.936-15.191 33.936-33.931v-588.138c0-18.7396-15.194-33.931-33.936-33.931h-50.972c-3.164 0-3.972 2.0169-3.972 5.1358 0 9.8798-2.424 19.5046-17.083 19.5046h-91.073c-14.66 0-17.084-9.6248-17.084-19.5046 0-3.1189-.808-5.1358-3.972-5.1358z" fill="#fff" fill-rule="evenodd"/></mask><path d="m0 0h335v688h-335z" fill="#f5f5f5" fill-opacity=".8"/><path d="m0 0h335v688h-335z" fill="#f5f5f5" fill-opacity=".8" opacity=".5"/><circle cx="124" cy="25" fill="#dfdfdf" r="4"/><path d="m139 6h57v3c0 1.6569-1.343 3-3 3h-51c-1.657 0-3-1.3431-3-3z" fill="#dfdfdf"/><g mask="url(#b)"><rect fill="#fff" height="656" rx="4" width="303" x="16" y="16"/><g clip-rule="evenodd" fill-rule="evenodd"><path d="m198.426 561.633 67.091-.003v7.454l-67.091.003z" fill="#111213" fill-opacity=".1"/><path d="m183.517 546.73 96.909-.004.001 7.455-96.91.004z" fill="#111213" fill-opacity=".1"/><path d="m71.6965 561.633 67.0915-.003v7.454l-67.0911.003z" fill="#111213" fill-opacity=".1"/><path d="m56.7874 546.727 96.9096-.005v7.455l-96.9093.004z" fill="#111213" fill-opacity=".1"/><path d="m198.417 397.621 67.091-.003v7.455l-67.091.003z" fill="#111213" fill-opacity=".1"/><path d="m183.508 382.719 96.909-.005.001 7.455-96.91.004z" fill="#111213" fill-opacity=".1"/><path d="m71.6902 397.641 67.0908-.003.001 7.454-67.0915.003z" fill="#111213" fill-opacity=".1"/><path d="m56.781 382.734 96.91-.004v7.455l-96.9097.004z" fill="#111213" fill-opacity=".1"/><path d="m198.423 472.28c0-8.285 6.715-15.001 15-15.001l37.091-.002c8.284 0 15 6.715 15.001 15l.001 37.091c.001 8.284-6.715 15-14.999 15.001l-37.091.001c-8.284.001-15-6.715-15.001-14.999z" fill="url(#a)"/><path d="m71.6946 472.28c-.0004-8.285 6.715-15.001 14.9993-15.001l37.0911-.002c8.284 0 15.001 6.715 15.001 15l.002 37.091c0 8.284-6.715 15-15 15.001l-37.0911.001c-8.2842.001-15.0003-6.715-15.0007-14.999z" fill="url(#a)"/><path d="m198.414 308.27c0-8.284 6.716-15 15-15l37.091-.002c8.284 0 15 6.715 15.001 14.999l.001 37.092c.001 8.284-6.715 15-14.999 15l-37.091.002c-8.284 0-15-6.715-15.001-14.999z" fill="url(#a)"/><path d="m71.6884 308.286c-.0003-8.284 6.7151-15.001 14.9994-15.001l37.0912-.002c8.284 0 15 6.715 15.001 15l.001 37.091c.001 8.284-6.715 15-14.999 15.001l-37.0912.001c-8.2843.001-15.0003-6.715-15.0007-14.999z" fill="url(#a)"/><path d="m116.41 233.629 104.364-.005.001 7.455-104.365.004z" fill="#111213" fill-opacity=".1"/><path d="m56.7722 218.723 223.6378-.01v7.454l-223.6374.01z" fill="#111213" fill-opacity=".1"/><path d="m56.77 203.805 223.638-.01v7.454l-223.6376.01z" fill="#111213" fill-opacity=".1"/><path d="m56.7708 188.902 223.6372-.01.001 7.455-223.6379.01z" fill="#111213" fill-opacity=".1"/><path d="m116.406 155.354c-.001-6.176 5.005-11.182 11.181-11.183l82-.003c6.176-.001 11.183 5.005 11.183 11.181 0 6.176-5.006 11.182-11.182 11.182l-82 .004c-6.176 0-11.182-5.006-11.182-11.181z" fill="#111213" fill-opacity=".1"/></g></g></svg>