<svg fill="none" height="139" viewBox="0 0 196 139" width="196" xmlns="http://www.w3.org/2000/svg" xmlns:xlink="http://www.w3.org/1999/xlink"><linearGradient id="a" gradientUnits="userSpaceOnUse" x1="68.3767" x2="72.1159" y1="51.1187" y2="77.69"><stop offset="0" stop-color="#f6d365"/><stop offset="1" stop-color="#ff7952"/></linearGradient><g clip-rule="evenodd" fill-rule="evenodd"><path d="m104.534 91.4023c0-2.2091 1.79-4 4-4h83.465c2.209 0 4 1.7909 4 4v43.2997c0 2.209-1.791 4-4 4h-83.465c-2.21 0-4-1.791-4-4z" fill="#111213" fill-opacity=".1"/><path d="m0 91.4023c0-2.2091 1.79086-4 4-4h83.4657c2.2092 0 4 1.7909 4 4v43.2997c0 2.209-1.7908 4-4 4h-83.46571c-2.20913 0-3.99999-1.791-3.99999-4z" fill="#111213" fill-opacity=".1"/><path d="m40.9992 55.4023c0-3.3137 2.6863-6 6-6h101.9998c3.314 0 6 2.6863 6 6v10.8c0 3.3137-2.686 6-6 6h-101.9998c-3.3137 0-6-2.6862-6-6z" fill="url(#a)"/><path d="m78.9992 58.9023h37.9998v3.8h-37.9998z" fill="#fff"/><g fill="#111213" fill-opacity=".1"><path d="m63.7992 30.3984h68.3998v3.8h-68.3998z"/><path d="m40.9992 22.8008h113.9998v3.8h-113.9998z"/><path d="m71.3985 0h53.1995v11.4h-53.1995z"/></g></g></svg>